<?xml version="1.0" standalone="no"?>
<!DOCTYPE svg PUBLIC "-//W3C//DTD SVG 1.1//EN" "http://www.w3.org/Graphics/SVG/1.1/DTD/svg11.dtd" >
<svg xmlns="http://www.w3.org/2000/svg">
<metadata></metadata>
<defs>
<font id="Reader" horiz-adv-x="1208" >
<font-face units-per-em="2048" ascent="1536" descent="-512" />
<missing-glyph horiz-adv-x="593" />
<glyph horiz-adv-x="0" />
<glyph horiz-adv-x="682" />
<glyph unicode=" "  horiz-adv-x="593" />
<glyph unicode="&#x09;" horiz-adv-x="593" />
<glyph unicode="&#xa0;" horiz-adv-x="593" />
<glyph unicode="!" horiz-adv-x="491" d="M147 0v231h197v-231h-197zM154 1026v428h184v-428l-39 -618h-109z" />
<glyph unicode="&#x22;" horiz-adv-x="757" d="M131 1227v227h188v-227l-28 -256h-133zM438 1227v227h189v-227l-29 -256h-133z" />
<glyph unicode="#" horiz-adv-x="1228" d="M-41 416v151h277l69 340h-254v152h287l82 395h155l-81 -395h362l82 395h156l-82 -395h268v-152h-301l-70 -340h279v-151h-311l-86 -416h-156l86 416h-363l-86 -416h-155l86 416h-244zM391 567h363l69 340h-362z" />
<glyph unicode="$" d="M29 281l143 75q49 -81 142 -138t227 -75v531q-81 9 -141.5 21.5t-127 40t-109 66t-70 103t-27.5 148.5q0 103 38 182.5t105 127.5t150 74.5t182 32.5v156h151v-160q237 -33 379 -219l-133 -82q-112 123 -246 144v-500q51 -6 89.5 -12.5t92.5 -20.5t93.5 -32t82 -48.5 t69 -69t44 -94t17.5 -122.5q0 -186 -137.5 -301.5t-350.5 -124.5v-152h-151v156q-185 19 -319.5 97t-192.5 196zM240 1053q0 -48 15.5 -85.5t41.5 -61t66.5 -40.5t81.5 -25.5t96 -15.5v488q-63 -5 -114.5 -20.5t-95 -44.5t-67.5 -79t-24 -116zM692 137q160 10 238 87t78 186 q0 55 -17.5 96t-43 65.5t-71 42t-84.5 25.5t-100 16v-518z" />
<glyph unicode="%" horiz-adv-x="1546" d="M154 1124q0 57 5.5 102t23 93.5t47.5 80.5t82.5 52.5t123.5 20.5q72 0 124.5 -20.5t82 -52.5t47 -80.5t22.5 -93t5 -102.5q0 -63 -5 -109.5t-22.5 -96t-47 -81t-82 -51.5t-124.5 -20q-71 0 -123.5 20t-82.5 51.5t-47.5 80.5t-23 96.5t-5.5 109.5zM205 0l950 1454h164 l-952 -1454h-162zM279 1124q0 -35 1 -57.5t5.5 -54.5t15 -52.5t27 -41t44 -30t64.5 -9.5q44 0 74.5 16t46 37t24 58.5t10 64t1.5 69.5q0 35 -1 56.5t-5.5 53t-14.5 51t-26.5 39t-44 29t-64.5 9.5t-64.5 -9.5t-44 -29t-27 -39t-15 -51t-5.5 -53.5t-1 -56zM799 340 q0 57 5.5 102t23 93t47.5 80t82.5 52.5t123.5 20.5q52 0 93.5 -10.5t70.5 -28.5t50.5 -45t34 -55.5t20 -65.5t10 -70t2.5 -73q0 -63 -5 -109.5t-22.5 -96t-47 -81t-82 -51.5t-124.5 -20q-71 0 -123.5 20t-82.5 51.5t-47.5 80.5t-23 96.5t-5.5 109.5zM924 340q0 -42 1.5 -69 t10 -64.5t24.5 -59t46.5 -37.5t74.5 -16t74.5 16t46 37.5t24 59t10 64t1.5 69.5q0 35 -1 56.5t-5.5 53t-14.5 51t-26.5 39t-44 29t-64.5 9.5t-64.5 -9.5t-44 -29t-27 -39t-15 -51t-5.5 -53.5t-1 -56z" />
<glyph unicode="&#x26;" horiz-adv-x="1400" d="M98 377q0 139 70 240t246 196q-156 162 -156 322q0 67 20 126t60 107.5t109 76.5t159 28q82 0 146 -19t104.5 -51t67 -77t37 -93t10.5 -103q0 -110 -58.5 -187.5t-224.5 -182.5l311 -350q37 54 70.5 112t48.5 90l15 31l124 -135q-49 -108 -143 -227l250 -281h-231 l-136 154q-186 -172 -399 -172q-237 0 -368.5 110t-131.5 285zM285 383q0 -53 22 -98q26 -49 58.5 -80.5t73 -46t75 -19t84.5 -4.5q148 0 289 141l-357 402q-113 -62 -179 -137t-66 -158zM430 1135q0 -60 31 -109t110 -135q123 63 176.5 116t53.5 123q0 91 -53 140t-142 49 q-74 0 -125 -47.5t-51 -136.5z" />
<glyph unicode="'" horiz-adv-x="450" d="M131 1227v227h188v-227l-28 -256h-133z" />
<glyph unicode="(" horiz-adv-x="645" d="M160 547q0 160 25.5 303t62 244.5t94 198.5t105 156.5t110.5 127.5l119 -104q-44 -48 -73.5 -82t-70.5 -90t-68 -106t-57 -122t-48 -147t-30 -173t-12 -206q0 -109 12 -207t30 -173t48 -147.5t57 -122.5t68 -106t70.5 -90t73.5 -82l-119 -104q-63 68 -110.5 127.5 t-105 156.5t-94 198.5t-62 245t-25.5 304.5z" />
<glyph unicode=")" horiz-adv-x="645" d="M-31 -381q44 48 73.5 82t70.5 90t68 106t57 122.5t48 147.5t30 173t12 207q0 108 -12 206t-30 173t-48 147t-57 122t-68 106t-70.5 90t-73.5 82l119 104q63 -68 110.5 -127.5t105 -156.5t94 -198.5t62 -244.5t25.5 -303q0 -161 -25.5 -304.5t-62 -245t-94 -198.5 t-105 -156.5t-110.5 -127.5z" />
<glyph unicode="*" horiz-adv-x="1163" d="M113 1081l51 150l344 -125l-6 367h157l-6 -363l338 115l49 -154l-346 -100l213 -293l-129 -90l-203 295l-210 -291l-127 94l217 283z" />
<glyph unicode="+" horiz-adv-x="1228" d="M72 524v152h456v483h174v-483h455v-152h-455v-497h-174v497h-456z" />
<glyph unicode="," horiz-adv-x="399" d="M102 0v231h195v-217q0 -58 -2.5 -84.5t-16.5 -58.5t-39.5 -56t-76.5 -63l-53 72q32 18 52.5 39.5t28 46t9.5 39.5t2 39v12h-99z" />
<glyph unicode="-" horiz-adv-x="946" d="M123 514v174h700v-174h-700z" />
<glyph unicode="." horiz-adv-x="399" d="M102 0v231h195v-231h-195z" />
<glyph unicode="/" horiz-adv-x="1060" d="M37 0l797 1473h217l-799 -1473h-215z" />
<glyph unicode="0" d="M94 727q0 91 5 165.5t19.5 153.5t38 140t62.5 116.5t91.5 92t127 57.5t166.5 21t166.5 -21t127 -57.5t91.5 -92t62.5 -116.5t38 -140t19.5 -153.5t5 -165.5t-5 -165.5t-19.5 -153.5t-38 -140t-62.5 -116t-91.5 -91.5t-127 -57.5t-166.5 -21t-166.5 21t-127 57.5 t-91.5 91.5t-62.5 116t-38 140t-19.5 153.5t-5 165.5zM274 707q0 -64 3 -117.5t12 -113t24 -106t40.5 -90.5t59.5 -73t82.5 -46.5t108.5 -17.5t108.5 17.5t82.5 46.5t59.5 73t40.5 90.5t24 106t12 113t3 117.5v41q0 91 -6.5 164t-27.5 150.5t-55.5 129.5t-96 85.5 t-144.5 33.5t-144.5 -33.5t-96 -85.5t-55.5 -129.5t-27.5 -150.5t-6.5 -164v-41z" />
<glyph unicode="1" d="M266 1042v164q9 0 20 0.5t40 5.5t54.5 13.5t57 27t53.5 43.5t37 66t15 92h180v-1454h-180v1042h-277z" />
<glyph unicode="2" d="M125 0v213q0 66 24.5 126t66 107t95.5 90.5t113.5 81t118.5 74t113 74.5t95.5 77.5t66 88t24.5 100.5q0 147 -67 212t-175 65q-170 0 -340 -174l-127 133q101 101 209.5 153t257.5 52q200 0 311 -118.5t111 -322.5q0 -88 -39.5 -164.5t-103 -133t-139.5 -108.5 t-152.5 -101.5t-140 -100.5t-103 -118t-39.5 -142h762v-164h-942z" />
<glyph unicode="3" d="M98 209l138 125q145 -189 364 -189q167 0 241 74t74 225q0 64 -24 113t-61 77.5t-88 46.5t-97 24t-96 6v163q321 0 321 203q0 77 -40 131t-99.5 77.5t-130.5 23.5q-87 0 -178 -46t-162 -128l-127 114q80 111 205 167.5t262 56.5q84 0 161.5 -23t144 -69t106 -124.5 t39.5 -179.5q0 -94 -60 -170t-170 -112q137 -42 206 -132t69 -219q0 -221 -122.5 -341.5t-373.5 -120.5q-143 0 -285 59t-217 168z" />
<glyph unicode="4" d="M63 303v164l545 987h195l-545 -987h406v446h180v-446h272v-164h-272v-303h-180v303h-601z" />
<glyph unicode="5" d="M100 215l136 119q59 -78 148 -133.5t200 -55.5q157 0 239 96t82 273q0 65 -18 122.5t-53 104t-93 74t-131 27.5q-102 0 -186 -62.5t-119 -154.5h-168l64 829h811v-164h-654l-36 -432q54 75 144 111.5t179 36.5q85 0 161.5 -29.5t140 -87t101 -154.5t37.5 -221 q0 -249 -126.5 -390.5t-374.5 -141.5q-153 0 -268 59t-216 174z" />
<glyph unicode="6" d="M96 657q0 392 144 604t434 212q210 0 368 -138l-104 -125q-62 56 -123 77.5t-158 21.5q-58 0 -106 -12t-95 -43.5t-81.5 -83.5t-61 -137.5t-37.5 -198.5q115 167 381 167q218 0 344.5 -135.5t126.5 -355.5q0 -249 -128.5 -388.5t-370.5 -139.5q-533 0 -533 675zM283 494 q0 -90 28.5 -159t78 -109.5t110 -60.5t129.5 -20q84 0 147 27.5t99.5 77t54.5 110.5t18 134q0 170 -82.5 257t-236.5 87q-161 0 -253.5 -99t-92.5 -245z" />
<glyph unicode="7" d="M143 1290v164h965v-164q-423 -481 -473 -1290h-180q33 807 411 1290h-723z" />
<glyph unicode="8" d="M115 418q0 117 73 221.5t177 130.5q-90 39 -143.5 116.5t-53.5 176.5q0 196 121 303t315 107t315 -107t121 -303q0 -99 -53 -176.5t-143 -116.5q104 -26 177 -130.5t73 -221.5q0 -208 -135 -322t-355 -114t-354.5 114t-134.5 322zM295 426q0 -281 309 -281t309 281 q0 113 -85 180.5t-224 67.5t-224 -67.5t-85 -180.5zM348 1061q0 -98 67.5 -156.5t188.5 -58.5t188.5 58.5t67.5 156.5q0 114 -62 181t-194 67t-194 -67t-62 -181z" />
<glyph unicode="9" d="M80 944q0 249 129 389t371 140q532 0 532 -676q0 -392 -143.5 -603.5t-433.5 -211.5q-212 0 -369 137l104 125q62 -56 123 -77.5t158 -21.5q74 0 132 20.5t111 70.5t88.5 147t49.5 238q-116 -168 -381 -168q-218 0 -344.5 135.5t-126.5 355.5zM260 961q0 -170 83 -257.5 t237 -87.5q161 0 253.5 99.5t92.5 245.5q0 90 -28.5 159t-78 109t-110 60t-129.5 20q-163 0 -241.5 -97.5t-78.5 -250.5z" />
<glyph unicode=":" horiz-adv-x="399" d="M102 0v231h195v-231h-195zM102 864v232h195v-232h-195z" />
<glyph unicode=";" horiz-adv-x="399" d="M102 0v231h195v-217q0 -58 -2.5 -84.5t-16.5 -58.5t-39.5 -56t-76.5 -63l-53 72q32 18 52.5 39.5t28 46t9.5 39.5t2 39v12h-99zM102 864v232h195v-232h-195z" />
<glyph unicode="&#x3c;" horiz-adv-x="1228" d="M215 610v78l707 610l104 -120l-610 -529l610 -528l-104 -121z" />
<glyph unicode="=" horiz-adv-x="1228" d="M133 217v184h938v-184h-938zM133 678v184h938v-184h-938z" />
<glyph unicode="&#x3e;" horiz-adv-x="1228" d="M203 121l610 528l-610 529l104 120l707 -610v-78l-707 -610z" />
<glyph unicode="?" horiz-adv-x="1107" d="M59 1214q84 116 216.5 187.5t279.5 71.5q89 0 166 -23.5t137.5 -70t95.5 -122t35 -172.5q0 -65 -21 -119t-54.5 -92t-74.5 -72.5t-81.5 -67.5t-74 -68.5t-54.5 -85t-21 -107.5v-65h-182v84q0 69 20.5 127t53.5 97.5t72.5 74.5t79.5 66t73 63.5t53.5 75.5t20.5 94 q0 100 -63 159.5t-181 59.5q-98 0 -202 -62t-163 -149zM420 0v231h194v-231h-194z" />
<glyph unicode="@" horiz-adv-x="1591" d="M92 551q0 204 90 374.5t252 270.5t363 100q669 0 669 -692q0 -227 -76.5 -334.5t-230.5 -107.5q-39 0 -68.5 12t-44 27.5t-23.5 34t-11 28.5t-2 15q-102 -132 -258 -132q-128 0 -214.5 69.5t-86.5 191.5q0 48 13 86t33 64.5t53.5 46t66 31t79 19t84 10.5t88.5 5 q119 3 119 73q0 41 -50.5 81t-117.5 40t-132.5 -26t-100.5 -74l-86 82q53 68 137.5 104.5t181.5 36.5q145 0 233.5 -78t88.5 -219v-313q0 -19 1 -30.5t5 -27.5t15 -24t28 -8q72 0 95.5 70t23.5 247q0 269 -123 404t-389 135q-151 0 -276 -76.5t-198 -212.5t-73 -303t67 -301 t192.5 -212.5t287.5 -78.5q147 0 235 14t180 60l109 -107q-106 -69 -225 -95t-303 -26q-212 0 -372 95t-244.5 264t-84.5 387zM600 408q0 -63 42.5 -102.5t125.5 -39.5q62 0 107 18t69.5 45t38.5 68t17.5 75t3.5 79v45q-40 -51 -197 -51q-207 0 -207 -137z" />
<glyph unicode="A" horiz-adv-x="1327" d="M6 0l588 1454h137l590 -1454h-184l-187 471h-573l-187 -471h-184zM436 625h453l-227 567z" />
<glyph unicode="B" horiz-adv-x="1380" d="M156 0v1454h665q203 0 311.5 -111.5t108.5 -283.5q0 -57 -19 -108.5t-48 -85t-54 -54t-47 -31.5q16 -7 32.5 -15.5t57 -39.5t69.5 -67t53 -98t24 -132q0 -202 -132 -315t-337 -113h-684zM328 154h506q162 0 232.5 66.5t70.5 213.5q0 123 -78.5 184.5t-210.5 61.5h-520 v-526zM328 834h499q118 0 178 49t60 178q0 65 -21.5 113t-58 74t-79 38t-91.5 12h-487v-464z" />
<glyph unicode="C" horiz-adv-x="1378" d="M92 727q0 211 87 382t238.5 267.5t336.5 96.5q200 0 341.5 -90t215.5 -250l-146 -84q-56 127 -159.5 198.5t-251.5 71.5q-138 0 -250 -76.5t-176 -212.5t-64 -303q0 -170 64 -306t176 -211t250 -75q152 0 254.5 70.5t156.5 195.5l146 -82q-72 -158 -211.5 -247.5 t-345.5 -89.5q-186 0 -337 94.5t-238 265.5t-87 385z" />
<glyph unicode="D" horiz-adv-x="1390" d="M156 0v1454h452q65 0 127 -8t132.5 -30t131 -57t117 -92t96.5 -130.5t64 -178.5t24 -231t-24 -231t-64 -178.5t-96.5 -130.5t-117 -92t-131 -57t-132.5 -30t-127 -8h-452zM328 154h288q78 0 146.5 15t137.5 54.5t118 102t79.5 165.5t30.5 236t-30.5 236t-79.5 165.5 t-118 102t-137.5 54.5t-146.5 15h-288v-1146z" />
<glyph unicode="E" horiz-adv-x="1181" d="M156 0v1454h940v-154h-768v-469h645v-153h-645v-524h788v-154h-960z" />
<glyph unicode="F" horiz-adv-x="1146" d="M156 0v1454h956v-154h-784v-469h633v-153h-633v-678h-172z" />
<glyph unicode="G" horiz-adv-x="1464" d="M92 727q0 211 87 382t238.5 267.5t336.5 96.5q203 0 350.5 -88t220.5 -246l-143 -84q-56 125 -167 194.5t-261 69.5q-138 0 -250 -76.5t-176 -212.5t-64 -303q0 -170 64 -306t176 -211t250 -75q88 0 161 25t130 75.5t88.5 135t31.5 196.5v39h-366v154h536v-760h-170 l-43 115q-156 -133 -368 -133q-186 0 -337 94.5t-238 265.5t-87 385z" />
<glyph unicode="H" horiz-adv-x="1406" d="M156 0v1454h172v-612h751v612h172v-1454h-172v688h-751v-688h-172z" />
<glyph unicode="I" horiz-adv-x="475" d="M152 0v1454h172v-1454h-172z" />
<glyph unicode="J" horiz-adv-x="1044" d="M47 414h172q0 -279 232 -279q139 0 204.5 81t65.5 243v995h172v-991q0 -481 -442 -481q-175 0 -289.5 113t-114.5 319z" />
<glyph unicode="K" horiz-adv-x="1282" d="M156 0v1454h172v-784l700 784h221l-542 -600l575 -854h-203l-479 737l-272 -301v-436h-172z" />
<glyph unicode="L" horiz-adv-x="1171" d="M156 0v1454h172v-1300h809v-154h-981z" />
<glyph unicode="M" horiz-adv-x="1822" d="M156 0v1454h301l454 -1188l455 1188h301v-1454h-172v1309l-502 -1309h-164l-501 1309v-1309h-172z" />
<glyph unicode="N" horiz-adv-x="1415" d="M156 0v1454h172l759 -1171v1171h173v-1454h-173l-759 1171v-1171h-172z" />
<glyph unicode="O" horiz-adv-x="1585" d="M92 727q0 147 53.5 283t145.5 238t223.5 163.5t278.5 61.5t278.5 -61.5t223 -163.5t145 -238t53.5 -283t-53.5 -283t-145 -238t-223 -163t-278.5 -61t-278.5 61t-223.5 163t-145.5 238t-53.5 283zM264 727q0 -114 39.5 -221.5t108.5 -189t168.5 -130.5t212.5 -49 t212.5 49t168 130.5t108 189t39.5 221.5t-39.5 221.5t-108 189t-168 130.5t-212.5 49t-212.5 -49t-168.5 -130.5t-108.5 -189t-39.5 -221.5z" />
<glyph unicode="P" horiz-adv-x="1312" d="M156 0v1454h618q272 0 395 -105.5t123 -332.5q0 -441 -518 -441h-446v-575h-172zM328 731h420q200 0 286 63.5t86 221.5q0 148 -84 216t-264 68h-444v-569z" />
<glyph unicode="Q" horiz-adv-x="1656" d="M92 727q0 147 53.5 283t145.5 238t223.5 163.5t278.5 61.5t278 -61.5t223 -163.5t145.5 -238t53.5 -283q0 -265 -160 -471q12 -18 39 -45q67 -57 193 -57v-172q-151 0 -248 57q-66 41 -105 92q-189 -149 -419 -149q-196 0 -358.5 103.5t-252.5 274t-90 367.5zM264 727 q0 -154 66.5 -287t189 -214t273.5 -81q106 0 183 30.5t152 92.5q-61 113 -114 152q-82 61 -240 61v172q241 0 369 -118q59 -51 106 -132q72 114 72 324q0 153 -66.5 287.5t-189 218.5t-272.5 84q-113 0 -212.5 -49t-168.5 -130.5t-108.5 -189t-39.5 -221.5z" />
<glyph unicode="R" horiz-adv-x="1349" d="M156 0v1454h618q272 0 395 -105.5t123 -332.5q0 -201 -97 -300t-308 -134l436 -582h-213l-434 575h-348v-575h-172zM328 731h420q200 0 286 63.5t86 221.5q0 148 -84 216t-264 68h-444v-569z" />
<glyph unicode="S" horiz-adv-x="1251" d="M37 281l143 75q61 -98 182 -158.5t300 -60.5q92 0 162.5 23t111 62t60.5 86.5t20 101.5q0 74 -32 123t-86.5 74t-125.5 38.5t-149 21.5t-156 17.5t-149 32.5t-125.5 61t-86.5 107.5t-32 167.5q0 90 29.5 162t79.5 119.5t119.5 79.5t146 45.5t163.5 13.5q80 0 152.5 -18.5 t120.5 -43.5t92 -60.5t64 -57.5t38 -46l-133 -82q-72 82 -153.5 117t-180.5 35q-57 0 -106.5 -7t-98 -26t-83 -48t-55.5 -75.5t-21 -107.5q0 -57 25 -99t53.5 -64.5t95.5 -39.5t103.5 -22t126.5 -14q103 -11 156.5 -18.5t139 -34t128.5 -65.5t77.5 -112t34.5 -174 q0 -129 -69.5 -227.5t-188.5 -149.5t-268 -51q-225 0 -391.5 81.5t-233.5 217.5z" />
<glyph unicode="T" horiz-adv-x="1196" d="M18 1300v154h1160v-154h-494v-1300h-172v1300h-494z" />
<glyph unicode="U" horiz-adv-x="1454" d="M143 664v790h172v-772q0 -93 11 -169.5t39 -148.5t73 -121t117 -78.5t166 -29.5q92 0 164 28.5t119.5 77.5t78 119t43.5 149t13 171v774h172v-790q0 -124 -16 -222t-56.5 -186.5t-106 -147t-169.5 -92.5t-242 -34q-140 0 -242 30.5t-166.5 84.5t-102.5 142t-52.5 188 t-14.5 237z" />
<glyph unicode="V" horiz-adv-x="1284" d="M6 1454h182l455 -1188l453 1188h182l-553 -1454h-162z" />
<glyph unicode="W" horiz-adv-x="1898" d="M6 1454h195l323 -1132l322 1132h207l323 -1132l322 1132h194l-432 -1454h-168l-342 1180l-340 -1180h-170z" />
<glyph unicode="X" horiz-adv-x="1265" d="M14 0l525 766l-459 688h205l358 -541l365 541h198l-471 -684l516 -770h-202l-412 623l-422 -623h-201z" />
<glyph unicode="Y" horiz-adv-x="1179" d="M2 1454h197l393 -713l391 713h195l-502 -907v-547h-172v549z" />
<glyph unicode="Z" horiz-adv-x="1148" d="M41 0v154l831 1146h-794v154h1007v-154l-831 -1146h856v-154h-1069z" />
<glyph unicode="[" horiz-adv-x="604" d="M174 -326v1911h461v-139h-301v-1632h301v-140h-461z" />
<glyph unicode="\" horiz-adv-x="1177" d="M72 1473h217l796 -1473h-215z" />
<glyph unicode="]" horiz-adv-x="604" d="M-31 -186h301v1632h-301v139h461v-1911h-461v140z" />
<glyph unicode="^" horiz-adv-x="1001" d="M72 971l327 483h205l326 -483h-209l-221 309l-217 -309h-211z" />
<glyph unicode="_" horiz-adv-x="905" d="M-8 0h921v-162h-921v162z" />
<glyph unicode="`" horiz-adv-x="763" d="M205 1473h188l166 -306h-141z" />
<glyph unicode="a" horiz-adv-x="1056" d="M86 326q0 48 13 91.5t45 85.5t79.5 72.5t123 49t169.5 18.5q41 0 80 4.5t86 17t75.5 42t28.5 71.5q0 86 -67 131t-168 45q-20 0 -44 -3.5t-67.5 -14.5t-89 -41.5t-80.5 -75.5l-118 111q5 7 14.5 18.5t45 41t77 52.5t110.5 41.5t146 18.5q204 0 301.5 -105.5t97.5 -291.5 v-627q0 -20 8.5 -34.5t22.5 -14.5v-29h-123q-30 0 -49 24t-19 70v23q-130 -135 -319 -135q-181 0 -280 93.5t-99 250.5zM272 309q0 -81 55 -133.5t144 -52.5q63 0 112.5 13.5t82.5 33.5t56 53t35.5 63t19 73.5t8 74t1.5 74.5v86q-29 -48 -101 -68t-148 -20q-54 0 -96.5 -7.5 t-70 -18t-47 -28.5t-29 -33t-15 -38t-6.5 -37t-1 -35z" />
<glyph unicode="b" horiz-adv-x="1261" d="M143 0v1454h162v-522q125 170 348 170q229 0 378 -158.5t149 -398.5q0 -150 -67 -278.5t-188.5 -206.5t-271.5 -78q-186 0 -313 127l-35 -109h-162zM295 545q0 -185 100 -300.5t262 -115.5q104 0 187.5 60.5t127.5 155t44 200.5q0 105 -44 198t-127.5 152t-187.5 59 q-78 0 -147 -35.5t-115 -93t-73 -131t-27 -149.5z" />
<glyph unicode="c" horiz-adv-x="1089" d="M82 522q0 171 60.5 301t181 204.5t286.5 74.5q65 0 124.5 -16.5t104 -42.5t81.5 -60.5t60.5 -69t39.5 -69.5l-129 -74q-16 28 -29 47.5t-39 47.5t-53.5 45.5t-69.5 30.5t-90 13q-58 0 -109 -13.5t-99 -45.5t-82.5 -80.5t-55 -123.5t-20.5 -169q0 -101 32.5 -179.5 t85.5 -123.5t113.5 -67.5t124.5 -22.5q65 0 119 15.5t90 42.5t59.5 54.5t38.5 59.5l131 -68q-21 -48 -55 -89.5t-85.5 -79.5t-128.5 -60t-169 -22q-103 0 -196 37t-165 104t-114.5 171t-42.5 228z" />
<glyph unicode="d" horiz-adv-x="1261" d="M82 545q0 240 148.5 398.5t377.5 158.5q223 0 348 -170v522h162v-1454h-162l-34 109q-127 -127 -314 -127q-149 0 -271 78t-188.5 206.5t-66.5 278.5zM244 545q0 -106 44.5 -201t128 -155t187.5 -60q162 0 262.5 115.5t100.5 300.5q0 102 -45 195.5t-129.5 153.5 t-188.5 60t-187.5 -59t-128 -152t-44.5 -198z" />
<glyph unicode="e" horiz-adv-x="1193" d="M82 535q0 113 31.5 213t92.5 180t161 127t227 47q104 0 190.5 -31t145.5 -84t100 -123t59.5 -147t18.5 -158v-61h-864q8 -164 105 -266.5t257 -102.5q192 0 318 156l127 -74q-70 -102 -183 -165.5t-262 -63.5q-60 0 -123.5 13.5t-137.5 51.5t-130.5 97t-94.5 160.5 t-38 230.5zM252 645h694q-4 36 -14 70.5t-35 80t-61.5 78.5t-99.5 56.5t-142 23.5q-133 0 -225 -77t-117 -232z" />
<glyph unicode="f" horiz-adv-x="593" d="M10 936v147h207v78q0 312 217 312q44 0 78 -4.5t46 -9.5l11 -5v-147q-26 18 -77 18q-37 0 -61 -19t-34.5 -57t-14 -74.5t-3.5 -91.5h190v-147h-190v-936h-162v936h-207z" />
<glyph unicode="g" horiz-adv-x="1220" d="M82 539q0 129 43 238t113 178.5t157 108t178 38.5q189 0 314 -125l33 106h161v-925q0 -47 -4.5 -92t-18 -101t-35.5 -103.5t-60.5 -95t-89 -80t-125.5 -53t-166 -20.5q-282 0 -480 178l105 119q168 -150 375 -150q94 0 162.5 33.5t105.5 92.5t53.5 127t16.5 149 q-128 -170 -347 -170q-213 0 -352 154t-139 393zM244 539q0 -106 33.5 -194t109 -147t182.5 -59q103 0 186.5 56t129 147.5t45.5 196.5q0 180 -97 297.5t-264 117.5q-81 0 -144.5 -35t-102 -94.5t-58.5 -132t-20 -153.5z" />
<glyph unicode="h" horiz-adv-x="1204" d="M143 0v1454h162v-557q141 205 373 205q88 0 157.5 -22.5t113.5 -60t72.5 -89t40 -106t11.5 -115.5v-709h-162v705q0 38 -4 68.5t-18.5 66t-38.5 59t-68.5 39.5t-105.5 16q-172 0 -271.5 -110.5t-99.5 -290.5v-553h-162z" />
<glyph unicode="i" horiz-adv-x="456" d="M143 1231v223h170v-223h-170zM147 0v1083h162v-1083h-162z" />
<glyph unicode="j" horiz-adv-x="505" d="M-31 -221q47 -19 115 -19q64 0 87.5 60t23.5 178v1087h161v-1091q0 -119 -14 -195t-45 -116.5t-70 -55t-98 -14.5q-38 0 -78 4.5t-61 8.5l-21 5v148zM188 1229v225h174v-225h-174z" />
<glyph unicode="k" horiz-adv-x="1077" d="M143 0v1454h162v-881l467 510h207l-379 -409l506 -674h-199l-411 563l-191 -205v-358h-162z" />
<glyph unicode="l" horiz-adv-x="448" d="M143 0v1454h162v-1454h-162z" />
<glyph unicode="m" horiz-adv-x="1681" d="M143 0v1083h162l33 -112q104 131 250 131q226 0 307 -189q116 189 307 189q85 0 148 -21t100.5 -55t60.5 -86t31 -106t8 -123v-711h-161v702q0 38 -3 67.5t-14.5 66t-30.5 61t-55.5 41t-85.5 16.5q-63 0 -109 -20.5t-75.5 -57.5t-47 -95.5t-24 -126t-6.5 -158.5v-496 h-162v711q0 243 -190 243q-281 0 -281 -450v-504h-162z" />
<glyph unicode="n" horiz-adv-x="1200" d="M143 0v1083h162l41 -133q130 152 330 152q97 0 169.5 -23t114.5 -59t67 -89.5t33.5 -104.5t8.5 -113v-713h-162v709q0 37 -4 66.5t-18 64.5t-38.5 58.5t-68.5 39.5t-104 16q-175 0 -272 -105t-97 -294v-555h-162z" />
<glyph unicode="o" horiz-adv-x="1216" d="M82 541q0 117 40 220.5t109 178.5t167 118.5t210 43.5q149 0 270 -74t189 -202.5t68 -284.5q0 -155 -68 -283t-189 -202t-270 -74q-112 0 -210 43.5t-167 118.5t-109 178t-40 219zM244 541q0 -107 45 -200.5t129.5 -152.5t189.5 -59q79 0 148 34.5t116 91.5t74 131.5 t27 154.5q0 107 -45 201t-130 153t-190 59t-189.5 -59t-129.5 -153t-45 -201z" />
<glyph unicode="p" horiz-adv-x="1261" d="M143 -369v1452h162l35 -108q127 127 313 127q150 0 271.5 -78t188.5 -206.5t67 -278.5q0 -240 -149 -398.5t-378 -158.5q-223 0 -348 170v-521h-162zM295 539q0 -102 44.5 -195.5t129.5 -154t188 -60.5q104 0 188 59t128.5 152.5t44.5 198.5q0 106 -44.5 200.5 t-128.5 154.5t-188 60q-162 0 -262 -115t-100 -300z" />
<glyph unicode="q" horiz-adv-x="1261" d="M82 539q0 150 66.5 278.5t188.5 206.5t271 78q187 0 314 -127l34 108h162v-1452h-162v521q-125 -170 -348 -170q-229 0 -377.5 158.5t-148.5 398.5zM244 539q0 -105 44.5 -198.5t128 -152.5t187.5 -59q103 0 188 60.5t130 154t45 195.5q0 185 -100.5 300t-262.5 115 q-104 0 -187.5 -60t-128 -154.5t-44.5 -200.5z" />
<glyph unicode="r" horiz-adv-x="759" d="M143 0v1083h162l35 -118q50 66 122.5 101.5t194.5 35.5q59 0 93 -19v-147q-30 18 -70 18q-196 0 -285.5 -110.5t-89.5 -319.5v-524h-162z" />
<glyph unicode="s" horiz-adv-x="968" d="M53 211l140 61q32 -57 110.5 -100t198.5 -43q248 0 248 168q0 55 -36.5 90t-95 52t-129 29.5t-141 31.5t-129 49t-95 90t-36.5 147q0 75 28.5 133t71 91.5t98.5 55t104 29t95 7.5q69 0 131.5 -15.5t100.5 -34.5t72 -45t43.5 -36.5t17.5 -20.5l-115 -94q-4 4 -12 10.5 t-34.5 23.5t-54 30t-68.5 23.5t-81 10.5q-235 0 -235 -168q0 -52 36.5 -85t94.5 -49.5t128.5 -29t141.5 -32.5t129 -51t94.5 -92.5t36.5 -149.5q0 -54 -20.5 -106t-65 -100.5t-128 -78.5t-195.5 -30q-90 0 -169 22.5t-133.5 59t-90.5 73.5t-56 74z" />
<glyph unicode="t" horiz-adv-x="653" d="M8 936v147h191v371h161v-371h267v-147h-267v-645q0 -25 1 -40.5t8 -41.5t20.5 -41t40.5 -27t66 -12q44 0 76.5 4.5t43.5 8.5l11 5v-147q-45 -18 -170 -18q-60 0 -103 12.5t-80 45t-56 96t-19 157.5v643h-191z" />
<glyph unicode="u" horiz-adv-x="1216" d="M143 371v712h162v-708q0 -37 4 -67t18.5 -65t38.5 -58.5t68.5 -39.5t104.5 -16q175 0 271.5 105t96.5 294v555h162v-1083h-162l-41 133q-129 -151 -329 -151q-91 0 -161 23t-113 59.5t-71 88.5t-38.5 105t-10.5 113z" />
<glyph unicode="v" horiz-adv-x="1073" d="M12 1083h176l349 -888l348 888h176l-447 -1083h-155z" />
<glyph unicode="w" horiz-adv-x="1581" d="M16 1083h177l260 -862l247 862h181l247 -862l261 862h176l-361 -1083h-149l-264 813l-265 -813h-149z" />
<glyph unicode="x" horiz-adv-x="946" d="M14 0l375 547l-366 536h192l262 -401l266 401h179l-357 -522l367 -561h-193l-270 428l-276 -428h-179z" />
<glyph unicode="y" horiz-adv-x="1075" d="M12 1083h178l345 -872l356 872h176l-457 -1083q-29 -70 -56 -124t-55 -94t-52 -68.5t-54.5 -47t-55 -29.5t-61.5 -16t-65.5 -6.5t-75.5 -1.5v147q78 0 126 10t84.5 42t59 74t52.5 122z" />
<glyph unicode="z" horiz-adv-x="860" d="M41 0v147l565 789h-528v147h723v-145l-568 -791h580v-147h-772z" />
<glyph unicode="{" horiz-adv-x="913" d="M174 559v141q75 1 125.5 20.5t75.5 55t34 74.5t9 94v289q0 86 14.5 148t49 109.5t96.5 71t153 23.5h131v-158h-55q-125 0 -175 -47.5t-50 -177.5v-254q0 -132 -49.5 -208.5t-174.5 -110.5q125 -34 174.5 -110.5t49.5 -207.5v-254q0 -130 50 -177.5t175 -47.5h55v-158 h-131q-91 0 -153 23.5t-96.5 71.5t-49 109.5t-14.5 148.5v288q0 55 -9 94.5t-34 75t-75 54.5t-126 20z" />
<glyph unicode="|" horiz-adv-x="499" d="M174 -369v1842h152v-1842h-152z" />
<glyph unicode="}" horiz-adv-x="913" d="M51 -168h55q126 0 176 47.5t50 177.5v254q0 132 49 208t174 110q-125 34 -174 110.5t-49 208.5v254q0 130 -50 177.5t-176 47.5h-55v158h131q91 0 153.5 -23.5t97 -71t49 -109.5t14.5 -148v-289q0 -43 5 -75.5t20.5 -65t41.5 -54t70.5 -35t105.5 -14.5v-141 q-76 -1 -126 -20t-74.5 -54.5t-33.5 -75t-9 -94.5v-288q0 -86 -14.5 -148t-49 -110t-97 -71.5t-153.5 -23.5h-131v158z" />
<glyph unicode="~" horiz-adv-x="1228" d="M23 582q5 9 14 24.5t42 55t71 69.5t101 55t132 25q42 0 82 -10.5t81.5 -34t67 -41t70.5 -51.5q106 -80 170 -80q29 0 60.5 16.5t56 39.5t44.5 46t31 40l11 16l149 -115q-4 -9 -13 -25t-40.5 -55.5t-69 -70t-99.5 -55.5t-130 -25q-82 0 -154 36.5t-151 100.5 q-6 4 -28 20.5t-28.5 21t-24.5 16t-28.5 15t-26 7.5t-30.5 4q-29 0 -60 -17.5t-55.5 -42.5t-45 -50t-31.5 -43l-11 -17z" />
<glyph unicode="&#xa1;" horiz-adv-x="503" d="M154 854v231h196v-231h-196zM160 59l37 619h108l39 -619v-428h-184v428z" />
<glyph unicode="&#xa2;" d="M133 709q0 233 113 387t319 184v193h121v-185q75 -4 141.5 -29.5t113.5 -64.5t79 -80t51 -84l-129 -74q-98 171 -256 183v-822q107 7 173.5 55.5t98.5 114.5l132 -67q-20 -46 -51.5 -86t-79.5 -77t-118 -61t-155 -28v-168h-121v174q-90 14 -168 57t-137 109.5t-93 162 t-34 206.5zM295 709q0 -84 22.5 -153t61.5 -114.5t85.5 -74t100.5 -41.5v804q-124 -29 -197 -130t-73 -291z" />
<glyph unicode="&#xa3;" d="M102 0v164q107 46 150 114t43 211v226h-164v153h164v74q0 83 11 155.5t40 143t74 121t118 81t167 30.5q190 0 319 -160l-119 -94q-66 100 -200 100q-59 0 -102 -21.5t-67.5 -54.5t-38.5 -85.5t-18 -101t-4 -114.5v-74h440v-153h-440v-226q0 -51 -2 -84t-10 -74.5 t-23.5 -69.5t-44 -55.5t-69.5 -45.5h379q101 0 170 35t118 120l121 -106q-128 -209 -409 -209h-603z" />
<glyph unicode="&#xa4;" horiz-adv-x="1284" d="M82 106l180 160q-90 123 -90 277q0 148 90 276l-180 160l123 123l160 -182q126 92 276 92t274 -90l162 180l125 -123l-182 -162q90 -123 90 -274q0 -154 -90 -277l182 -160l-125 -124l-159 180q-125 -88 -277 -88q-151 0 -276 88l-160 -180zM348 543q0 -122 86 -208.5 t207 -86.5q123 0 208 86t85 209t-85.5 208t-207.5 85q-121 0 -207 -86t-86 -207z" />
<glyph unicode="&#xa5;" d="M57 1454h197l352 -713l350 713h195l-369 -723h291v-184h-383v-139h383v-181h-383v-227h-172v227h-383v181h383v139h-383v184h289z" />
<glyph unicode="&#xa6;" horiz-adv-x="477" d="M150 0v596h178v-596h-178zM150 877v596h178v-596h-178z" />
<glyph unicode="&#xa7;" d="M193 84l126 92q53 -57 127 -86t140 -29q140 0 199 49.5t59 122.5q0 40 -22.5 69t-60 47t-86.5 31.5t-103 26t-107.5 27.5t-102.5 40t-86.5 59.5t-60 89t-22.5 125.5q0 148 120 249q-120 78 -120 236q0 71 24.5 127.5t65.5 93t97 61t116 34.5t127 10q115 0 217 -44 t176 -133l-127 -92q-53 57 -127 86t-139 29q-140 0 -199 -49.5t-59 -122.5q0 -40 22.5 -69t60 -46.5t86.5 -31t102.5 -26t107.5 -28t103 -40.5t86.5 -59t60 -88.5t22.5 -125.5q0 -147 -123 -250q123 -80 123 -236q0 -88 -36.5 -153t-99.5 -101.5t-136.5 -53.5t-157.5 -17 q-115 0 -217 43.5t-176 132.5zM365 748q0 -23 5.5 -42.5t18 -35.5t25 -28t35.5 -23t40 -18.5t48 -16t49.5 -13.5t55 -13t54.5 -13q32 17 48 26t39 26t33.5 32t19 38.5t8.5 51.5q0 26 -8.5 48t-19.5 37.5t-34.5 30t-41 23.5t-52 19.5t-54.5 15.5t-61.5 14.5t-60.5 14.5 q-38 -19 -56 -29.5t-43.5 -32t-36.5 -49t-11 -63.5z" />
<glyph unicode="&#xa8;" horiz-adv-x="958" d="M205 1262v211h190v-211h-190zM563 1262v211h191v-211h-191z" />
<glyph unicode="&#xa9;" horiz-adv-x="1634" d="M72 727q0 152 59 290t158.5 238t237.5 159t290 59q203 0 374.5 -100t271.5 -271.5t100 -374.5q0 -152 -59 -290t-159 -237.5t-238 -158.5t-290 -59t-290 59t-237.5 158.5t-158.5 237.5t-59 290zM225 727q0 -121 46 -231.5t125 -191t189 -128t232 -47.5t232 47.5t189 128 t125 191t46 231.5t-46 231.5t-125 191t-189 128t-232 47.5t-232 -47.5t-189 -128t-125 -191t-46 -231.5zM430 711q0 197 103 315.5t290 118.5q61 0 114.5 -18t90.5 -48t62 -61.5t40 -65.5l-110 -59q-17 29 -27.5 43.5t-34 37.5t-57 33.5t-78.5 10.5q-51 0 -94 -14.5t-81 -47 t-59.5 -95t-21.5 -150.5q0 -92 38 -155.5t93 -90.5t119 -27q156 0 217 119l111 -57q-35 -79 -115.5 -134t-212.5 -55q-161 0 -274 108.5t-113 291.5z" />
<glyph unicode="&#xaa;" horiz-adv-x="671" d="M20 922q0 42 16 80t50 71.5t95.5 53.5t144.5 20q29 0 56.5 3t61 12t54 30t20.5 51q0 60 -48.5 92.5t-119.5 32.5q-21 0 -45.5 -3.5t-72.5 -27.5t-80 -65l-84 78q3 5 10 13.5t32 29.5t54 37t78 29.5t104 13.5q145 0 214 -75.5t69 -207.5v-445q0 -14 6 -24t16 -10v-21h-88 q-21 0 -34 17.5t-13 50.5v14q-94 -94 -227 -94q-128 0 -198.5 66.5t-70.5 177.5zM152 909q0 -58 38.5 -94.5t102.5 -36.5q62 0 106 18t66.5 43t35 65.5t15 71t2.5 75.5v61q-21 -34 -73 -48.5t-105 -14.5t-90 -10t-55.5 -23.5t-29 -35t-12 -36t-1.5 -35.5z" />
<glyph unicode="&#xab;" horiz-adv-x="1165" d="M92 559v66l383 458l135 -112l-317 -379l319 -381l-135 -113zM522 559v66l383 458l135 -112l-317 -379l319 -381l-135 -113z" />
<glyph unicode="&#xac;" horiz-adv-x="1228" d="M166 506v153h895v-528h-172v375h-723z" />
<glyph unicode="&#xad;" horiz-adv-x="946" d="M123 514v174h700v-174h-700z" />
<glyph unicode="&#xae;" horiz-adv-x="1634" d="M72 727q0 152 59 290t158.5 238t237.5 159t290 59q203 0 374.5 -100t271.5 -271.5t100 -374.5q0 -152 -59 -290t-159 -237.5t-238 -158.5t-290 -59t-290 59t-237.5 158.5t-158.5 237.5t-59 290zM225 727q0 -121 46 -231.5t125 -191t189 -128t232 -47.5t232 47.5t189 128 t125 191t46 231.5t-46 231.5t-125 191t-189 128t-232 47.5t-232 -47.5t-189 -128t-125 -191t-46 -231.5zM494 322v811h344q284 0 284 -246q0 -108 -41.5 -162.5t-134.5 -79.5l232 -323h-162l-219 311h-168v-311h-135zM629 752h162q116 0 157 24.5t41 110.5q0 79 -39 103 t-143 24h-178v-262z" />
<glyph unicode="&#xb0;" horiz-adv-x="954" d="M205 1200q0 113 80 193t192 80q113 0 193 -80.5t80 -192.5t-80 -192t-193 -80t-192.5 80t-79.5 192zM360 1200q0 -47 35 -82t82 -35t82 35t35 82t-35 82t-82 35t-82 -35t-35 -82z" />
<glyph unicode="&#xb1;" horiz-adv-x="1228" d="M172 0v168h883v-168h-883zM172 639v154h350v352h187v-352h346v-154h-346v-352h-187v352h-350z" />
<glyph unicode="&#xb2;" horiz-adv-x="798" d="M92 551v133q0 70 31.5 129t78 97.5t101.5 76.5t101.5 68t78 70.5t31.5 84.5q0 70 -37 101.5t-88 31.5q-120 0 -207 -94l-86 97q61 63 130.5 95t162.5 32q127 0 195.5 -68.5t68.5 -194.5q0 -59 -23 -109.5t-60 -86t-82 -67t-90 -60.5t-82 -58t-60 -67t-23 -82h449v-129 h-590z" />
<glyph unicode="&#xb3;" horiz-adv-x="798" d="M92 684l96 86q39 -51 89 -75.5t129 -24.5q74 0 119.5 39.5t45.5 121.5q0 46 -14.5 76.5t-43 45.5t-61 20.5t-79.5 5.5v127q87 0 130.5 24t43.5 97q0 58 -37.5 87t-103.5 29q-117 0 -199 -94l-92 84q49 69 127 104.5t164 35.5q52 0 100 -14.5t89.5 -43t66 -77t24.5 -111.5 q0 -62 -34 -112.5t-101 -72.5q85 -25 122.5 -77.5t37.5 -133.5q0 -131 -75.5 -210.5t-229.5 -79.5q-90 0 -178.5 37.5t-135.5 105.5z" />
<glyph unicode="&#xb4;" horiz-adv-x="763" d="M205 1167l166 306h188l-213 -306h-141z" />
<glyph unicode="&#xb6;" horiz-adv-x="1484" d="M147 1016q0 183 127.5 310.5t309.5 127.5h696v-170h-180v-1534h-164v1534h-186v-1534h-166v832q-182 0 -309.5 126.5t-127.5 307.5z" />
<glyph unicode="&#xb7;" horiz-adv-x="358" d="M82 545v231h194v-231h-194z" />
<glyph unicode="&#xb8;" horiz-adv-x="837" d="M205 -242l92 328l129 -33l-47 -166q39 39 88 39q82 0 124 -44.5t42 -121.5q0 -72 -52.5 -126.5t-144.5 -63.5v119q82 16 82 75q0 28 -14.5 41t-50.5 13q-44 0 -82.5 -28t-54.5 -56l-17 -27z" />
<glyph unicode="&#xb9;" horiz-adv-x="798" d="M246 1190v129q7 0 16 1t31 4.5t40.5 14t38 26t31 44t11.5 64.5h139v-902h-139v619h-168z" />
<glyph unicode="&#xba;" horiz-adv-x="870" d="M61 1073q0 168 107.5 284t267.5 116t266.5 -115.5t106.5 -284.5q0 -167 -106.5 -281t-266.5 -114t-267.5 114t-107.5 281zM178 1073q0 -118 73 -204.5t185 -86.5t185 86.5t73 204.5t-73 206.5t-185 88.5t-185 -88.5t-73 -206.5z" />
<glyph unicode="&#xbb;" horiz-adv-x="1165" d="M123 211l319 381l-317 379l135 112l383 -458v-66l-385 -461zM553 211l319 381l-317 379l135 112l383 -458v-66l-385 -461z" />
<glyph unicode="&#xbc;" horiz-adv-x="1740" d="M160 1190v129q7 0 16 1t31 4.5t40.5 14t38 26t31 44t11.5 64.5h139v-902h-139v619h-168zM276 0l951 1454h164l-953 -1454h-162zM905 160v129l338 610h146l-336 -610h243v274h140v-274h120v-129h-120v-160h-140v160h-391z" />
<glyph unicode="&#xbd;" horiz-adv-x="1740" d="M66 1190v129q7 0 15.5 1t30.5 4.5t41 14t38 26t30.5 44t11.5 64.5h140v-902h-140v619h-167zM182 0l951 1454h163l-952 -1454h-162zM1032 0v133q0 70 31.5 129t78 97.5t101.5 76.5t101.5 68t78 70.5t31.5 84.5q0 70 -37.5 102t-87.5 32q-119 0 -207 -95l-86 97 q61 63 130.5 95t162.5 32q127 0 195.5 -68.5t68.5 -194.5q0 -59 -23 -109.5t-60 -86t-81.5 -67t-89.5 -60.5t-82 -58t-60 -67t-23 -82h448v-129h-590z" />
<glyph unicode="&#xbe;" horiz-adv-x="1740" d="M61 684l97 86q39 -51 88.5 -75.5t128.5 -24.5q74 0 120 39.5t46 121.5q0 46 -14.5 76.5t-43.5 45.5t-61.5 20.5t-79.5 5.5v127q87 0 130.5 24t43.5 97q0 58 -37.5 87t-103.5 29q-117 0 -199 -94l-92 84q49 69 127 104.5t164 35.5q52 0 100 -14.5t89.5 -43t66 -77 t24.5 -111.5q0 -62 -34 -112.5t-101 -72.5q85 -25 122.5 -77.5t37.5 -133.5q0 -131 -75.5 -210.5t-229.5 -79.5q-90 0 -178.5 37.5t-135.5 105.5zM373 0l950 1454h164l-952 -1454h-162zM1001 160v129l338 610h146l-336 -610h244v274h139v-274h121v-129h-121v-160h-139v160 h-392z" />
<glyph unicode="&#xbf;" horiz-adv-x="1073" d="M51 0q0 65 21 119t54.5 92t74.5 72.5t81.5 67.5t74 68.5t54.5 85t21 107.5v66h182v-84q0 -69 -20.5 -127t-53.5 -97.5t-72.5 -74.5t-79 -66t-72.5 -63.5t-53.5 -75.5t-20.5 -94q0 -100 62.5 -159.5t180.5 -59.5q98 0 202 62t163 149l131 -117q-84 -116 -216.5 -187 t-279.5 -71q-89 0 -166 23.5t-137.5 69.5t-95.5 121.5t-35 172.5zM426 854v231h195v-231h-195z" />
<glyph unicode="&#xc0;" horiz-adv-x="1327" d="M6 0l588 1454h137l590 -1454h-184l-187 471h-573l-187 -471h-184zM340 1923h188l166 -305h-141zM436 625h453l-227 567z" />
<glyph unicode="&#xc1;" horiz-adv-x="1327" d="M6 0l588 1454h137l590 -1454h-184l-187 471h-573l-187 -471h-184zM436 625h453l-227 567zM637 1618l166 305h188l-213 -305h-141z" />
<glyph unicode="&#xc2;" horiz-adv-x="1327" d="M6 0l588 1454h137l590 -1454h-184l-187 471h-573l-187 -471h-184zM403 1618l191 305h135l193 -305h-138l-122 172l-121 -172h-138zM436 625h453l-227 567z" />
<glyph unicode="&#xc3;" horiz-adv-x="1327" d="M6 0l588 1454h137l590 -1454h-184l-187 471h-573l-187 -471h-184zM322 1712q3 6 9.5 16t28 35t44 44t56.5 35t68 16q40 0 79.5 -18.5t66 -40t59.5 -40t62 -18.5q25 0 53.5 20.5t44.5 40.5l16 21l97 -70q-4 -6 -10.5 -15t-27.5 -33t-43.5 -42.5t-56.5 -33.5t-67 -15 q-41 0 -82 18.5t-67.5 40t-58.5 40t-58 18.5q-25 0 -54 -22.5t-45 -45.5l-16 -23zM436 625h453l-227 567z" />
<glyph unicode="&#xc4;" horiz-adv-x="1327" d="M6 0l588 1454h137l590 -1454h-184l-187 471h-573l-187 -471h-184zM389 1618v211h191v-211h-191zM436 625h453l-227 567zM748 1618v211h190v-211h-190z" />
<glyph unicode="&#xc5;" horiz-adv-x="1327" d="M6 0l549 1358q-45 28 -71.5 74.5t-26.5 101.5q0 84 60.5 144.5t144.5 60.5t145 -60.5t61 -144.5q0 -54 -27.5 -100.5t-72.5 -73.5l553 -1360h-184l-187 471h-573l-187 -471h-184zM436 625h453l-227 567zM582 1534q0 -32 20 -55.5t51 -24.5h9q34 0 57.5 23t23.5 57 q0 32 -23.5 56t-57.5 24q-33 0 -56.5 -23.5t-23.5 -56.5z" />
<glyph unicode="&#xc6;" horiz-adv-x="1824" d="M-6 0l698 1454h1047v-154h-768v-469h645v-153h-645v-524h788v-154h-960v471h-393l-224 -471h-188zM475 625h324v675z" />
<glyph unicode="&#xc7;" horiz-adv-x="1378" d="M92 727q0 211 87 382t238.5 267.5t336.5 96.5q200 0 341.5 -90t215.5 -250l-146 -84q-56 127 -159.5 198.5t-251.5 71.5q-138 0 -250 -76.5t-176 -212.5t-64 -303q0 -170 64 -306t176 -211t250 -75q152 0 254.5 70.5t156.5 195.5l146 -82q-72 -158 -211.5 -247.5 t-345.5 -89.5q-16 0 -78 4l-27 -99q39 39 88 39q82 0 124 -44.5t42 -121.5q0 -72 -52 -126.5t-144 -63.5v119q81 16 81 75q0 28 -14.5 41t-50.5 13q-44 0 -82.5 -28t-54.5 -56l-17 -27l-94 51l72 256q-205 70 -330 261.5t-125 451.5z" />
<glyph unicode="&#xc8;" horiz-adv-x="1181" d="M156 0v1454h940v-154h-768v-469h645v-153h-645v-524h788v-154h-960zM414 1923h188l166 -305h-141z" />
<glyph unicode="&#xc9;" horiz-adv-x="1181" d="M156 0v1454h940v-154h-768v-469h645v-153h-645v-524h788v-154h-960zM414 1618l166 305h188l-213 -305h-141z" />
<glyph unicode="&#xca;" horiz-adv-x="1181" d="M156 0v1454h940v-154h-768v-469h645v-153h-645v-524h788v-154h-960zM332 1618l190 305h135l193 -305h-137l-123 172l-121 -172h-137z" />
<glyph unicode="&#xcb;" horiz-adv-x="1181" d="M156 0v1454h940v-154h-768v-469h645v-153h-645v-524h788v-154h-960zM367 1618v211h190v-211h-190zM725 1618v211h190v-211h-190z" />
<glyph unicode="&#xcc;" horiz-adv-x="475" d="M59 1923h189l166 -305h-142zM152 0v1454h172v-1454h-172z" />
<glyph unicode="&#xcd;" horiz-adv-x="475" d="M59 1618l166 305h189l-213 -305h-142zM152 0v1454h172v-1454h-172z" />
<glyph unicode="&#xce;" horiz-adv-x="475" d="M-20 1638l190 306h135l193 -306h-138l-122 172l-121 -172h-137zM152 0v1454h172v-1454h-172z" />
<glyph unicode="&#xcf;" horiz-adv-x="475" d="M-37 1618v211h191v-211h-191zM152 0v1454h172v-1454h-172zM322 1618v211h190v-211h-190z" />
<glyph unicode="&#xd0;" horiz-adv-x="1431" d="M10 653v154h187v647h452q65 0 127 -8t132.5 -30t131 -57t117 -92t96.5 -130.5t64 -178.5t24 -231t-24 -231t-64 -178.5t-96.5 -130.5t-117 -92t-131 -57t-132.5 -30t-127 -8h-452v653h-187zM369 154h288q78 0 146.5 15t137.5 54.5t118 102t79.5 165.5t30.5 236t-30.5 236 t-79.5 165.5t-118 102t-137.5 54.5t-146.5 15h-288v-493h219v-154h-219v-499z" />
<glyph unicode="&#xd1;" horiz-adv-x="1415" d="M156 0v1454h172l759 -1171v1171h173v-1454h-173l-759 1171v-1171h-172zM365 1712q3 6 9.5 16t28 35t44 44t56.5 35t68 16q40 0 79.5 -18.5t66 -40t59.5 -40t62 -18.5q25 0 53.5 20.5t44.5 40.5l16 21l97 -70q-4 -6 -10.5 -15t-27.5 -33t-43.5 -42.5t-56.5 -33.5t-67 -15 q-41 0 -82 18.5t-67.5 40t-58.5 40t-58 18.5q-25 0 -54 -22.5t-45 -45.5l-16 -23z" />
<glyph unicode="&#xd2;" horiz-adv-x="1585" d="M92 727q0 147 53.5 283t145.5 238t223.5 163.5t278.5 61.5t278.5 -61.5t223 -163.5t145 -238t53.5 -283t-53.5 -283t-145 -238t-223 -163t-278.5 -61t-278.5 61t-223.5 163t-145.5 238t-53.5 283zM264 727q0 -114 39.5 -221.5t108.5 -189t168.5 -130.5t212.5 -49 t212.5 49t168 130.5t108 189t39.5 221.5t-39.5 221.5t-108 189t-168 130.5t-212.5 49t-212.5 -49t-168.5 -130.5t-108.5 -189t-39.5 -221.5zM508 1923h188l166 -305h-141z" />
<glyph unicode="&#xd3;" horiz-adv-x="1585" d="M92 727q0 147 53.5 283t145.5 238t223.5 163.5t278.5 61.5t278.5 -61.5t223 -163.5t145 -238t53.5 -283t-53.5 -283t-145 -238t-223 -163t-278.5 -61t-278.5 61t-223.5 163t-145.5 238t-53.5 283zM264 727q0 -114 39.5 -221.5t108.5 -189t168.5 -130.5t212.5 -49 t212.5 49t168 130.5t108 189t39.5 221.5t-39.5 221.5t-108 189t-168 130.5t-212.5 49t-212.5 -49t-168.5 -130.5t-108.5 -189t-39.5 -221.5zM723 1618l166 305h188l-213 -305h-141z" />
<glyph unicode="&#xd4;" horiz-adv-x="1585" d="M92 727q0 147 53.5 283t145.5 238t223.5 163.5t278.5 61.5t278.5 -61.5t223 -163.5t145 -238t53.5 -283t-53.5 -283t-145 -238t-223 -163t-278.5 -61t-278.5 61t-223.5 163t-145.5 238t-53.5 283zM264 727q0 -114 39.5 -221.5t108.5 -189t168.5 -130.5t212.5 -49 t212.5 49t168 130.5t108 189t39.5 221.5t-39.5 221.5t-108 189t-168 130.5t-212.5 49t-212.5 -49t-168.5 -130.5t-108.5 -189t-39.5 -221.5zM535 1618l190 305h135l193 -305h-138l-122 172l-121 -172h-137z" />
<glyph unicode="&#xd5;" horiz-adv-x="1585" d="M92 727q0 147 53.5 283t145.5 238t223.5 163.5t278.5 61.5t278.5 -61.5t223 -163.5t145 -238t53.5 -283t-53.5 -283t-145 -238t-223 -163t-278.5 -61t-278.5 61t-223.5 163t-145.5 238t-53.5 283zM264 727q0 -114 39.5 -221.5t108.5 -189t168.5 -130.5t212.5 -49 t212.5 49t168 130.5t108 189t39.5 221.5t-39.5 221.5t-108 189t-168 130.5t-212.5 49t-212.5 -49t-168.5 -130.5t-108.5 -189t-39.5 -221.5zM451 1712q3 6 9.5 16t28 35t44 44t56.5 35t68 16q40 0 79.5 -18.5t66 -40t59.5 -40t62 -18.5q25 0 53.5 20.5t44.5 40.5l16 21 l97 -70q-4 -6 -10.5 -15t-27.5 -33t-43.5 -42.5t-56.5 -33.5t-67 -15q-41 0 -82 18.5t-67.5 40t-58.5 40t-58 18.5q-25 0 -54 -22.5t-45 -45.5l-16 -23z" />
<glyph unicode="&#xd6;" horiz-adv-x="1585" d="M92 727q0 147 53.5 283t145.5 238t223.5 163.5t278.5 61.5t278.5 -61.5t223 -163.5t145 -238t53.5 -283t-53.5 -283t-145 -238t-223 -163t-278.5 -61t-278.5 61t-223.5 163t-145.5 238t-53.5 283zM264 727q0 -114 39.5 -221.5t108.5 -189t168.5 -130.5t212.5 -49 t212.5 49t168 130.5t108 189t39.5 221.5t-39.5 221.5t-108 189t-168 130.5t-212.5 49t-212.5 -49t-168.5 -130.5t-108.5 -189t-39.5 -221.5zM518 1618v211h191v-211h-191zM877 1618v211h190v-211h-190z" />
<glyph unicode="&#xd7;" horiz-adv-x="1228" d="M174 254l328 328l-328 329l111 111l329 -328l328 328l113 -111l-330 -329l330 -328l-113 -113l-328 330l-329 -330z" />
<glyph unicode="&#xd8;" horiz-adv-x="1585" d="M92 727q0 147 53.5 283t145.5 238t223.5 163.5t278.5 61.5q188 0 352 -101l127 170l155 -108l-137 -183q96 -104 149.5 -240t53.5 -284q0 -147 -53.5 -283t-145 -238t-223 -163t-278.5 -61q-207 0 -367 108l-150 -203l-149 111l158 213q-92 104 -142.5 237.5t-50.5 278.5 zM264 727q0 -212 123 -379l662 895q-122 74 -256 74q-113 0 -212.5 -49t-168.5 -130.5t-108.5 -189t-39.5 -221.5zM522 219q125 -82 271 -82q113 0 212.5 49t168 130.5t108 189t39.5 221.5q0 222 -131 387z" />
<glyph unicode="&#xd9;" horiz-adv-x="1454" d="M143 664v790h172v-772q0 -93 11 -169.5t39 -148.5t73 -121t117 -78.5t166 -29.5q92 0 164 28.5t119.5 77.5t78 119t43.5 149t13 171v774h172v-790q0 -124 -16 -222t-56.5 -186.5t-106 -147t-169.5 -92.5t-242 -34q-140 0 -242 30.5t-166.5 84.5t-102.5 142t-52.5 188 t-14.5 237zM549 1923h188l166 -305h-141z" />
<glyph unicode="&#xda;" horiz-adv-x="1454" d="M143 664v790h172v-772q0 -93 11 -169.5t39 -148.5t73 -121t117 -78.5t166 -29.5q92 0 164 28.5t119.5 77.5t78 119t43.5 149t13 171v774h172v-790q0 -124 -16 -222t-56.5 -186.5t-106 -147t-169.5 -92.5t-242 -34q-140 0 -242 30.5t-166.5 84.5t-102.5 142t-52.5 188 t-14.5 237zM549 1618l166 305h188l-213 -305h-141z" />
<glyph unicode="&#xdb;" horiz-adv-x="1454" d="M143 664v790h172v-772q0 -93 11 -169.5t39 -148.5t73 -121t117 -78.5t166 -29.5q92 0 164 28.5t119.5 77.5t78 119t43.5 149t13 171v774h172v-790q0 -124 -16 -222t-56.5 -186.5t-106 -147t-169.5 -92.5t-242 -34q-140 0 -242 30.5t-166.5 84.5t-102.5 142t-52.5 188 t-14.5 237zM467 1618l190 305h136l192 -305h-137l-123 172l-121 -172h-137z" />
<glyph unicode="&#xdc;" horiz-adv-x="1454" d="M143 664v790h172v-772q0 -93 11 -169.5t39 -148.5t73 -121t117 -78.5t166 -29.5q92 0 164 28.5t119.5 77.5t78 119t43.5 149t13 171v774h172v-790q0 -124 -16 -222t-56.5 -186.5t-106 -147t-169.5 -92.5t-242 -34q-140 0 -242 30.5t-166.5 84.5t-102.5 142t-52.5 188 t-14.5 237zM453 1618v211h190v-211h-190zM811 1618v211h190v-211h-190z" />
<glyph unicode="&#xdd;" horiz-adv-x="1179" d="M2 1454h197l393 -713l391 713h195l-502 -907v-547h-172v549zM412 1538l166 305h188l-213 -305h-141z" />
<glyph unicode="&#xde;" horiz-adv-x="1234" d="M156 0v1454h172v-289h352q518 0 518 -440q0 -227 -123 -332.5t-395 -105.5h-352v-287h-172zM328 440h350q197 0 272.5 65.5t75.5 219.5q0 111 -32 170.5t-112 87t-229 27.5h-325v-570z" />
<glyph unicode="&#xdf;" horiz-adv-x="1142" d="M154 0v1032q0 212 103 326.5t314 114.5q173 0 273 -114t100 -306q0 -92 -50 -178.5t-136 -126.5q101 -17 182.5 -113.5t81.5 -241.5q0 -223 -122 -317t-413 -94v155q198 0 280.5 56.5t82.5 199.5q0 248 -334 248v172q110 0 183 63.5t73 176.5q0 115 -55 189.5t-156 74.5 q-127 0 -181 -75t-54 -210v-1032h-172z" />
<glyph unicode="&#xe0;" horiz-adv-x="1056" d="M86 326q0 48 13 91.5t45 85.5t79.5 72.5t123 49t169.5 18.5q41 0 80 4.5t86 17t75.5 42t28.5 71.5q0 86 -67 131t-168 45q-20 0 -44 -3.5t-67.5 -14.5t-89 -41.5t-80.5 -75.5l-118 111q5 7 14.5 18.5t45 41t77 52.5t110.5 41.5t146 18.5q204 0 301.5 -105.5t97.5 -291.5 v-627q0 -20 8.5 -34.5t22.5 -14.5v-29h-123q-30 0 -49 24t-19 70v23q-130 -135 -319 -135q-181 0 -280 93.5t-99 250.5zM268 1552h189l166 -305h-142zM272 309q0 -81 55 -133.5t144 -52.5q63 0 112.5 13.5t82.5 33.5t56 53t35.5 63t19 73.5t8 74t1.5 74.5v86 q-29 -48 -101 -68t-148 -20q-54 0 -96.5 -7.5t-70 -18t-47 -28.5t-29 -33t-15 -38t-6.5 -37t-1 -35z" />
<glyph unicode="&#xe1;" horiz-adv-x="1056" d="M86 326q0 48 13 91.5t45 85.5t79.5 72.5t123 49t169.5 18.5q41 0 80 4.5t86 17t75.5 42t28.5 71.5q0 86 -67 131t-168 45q-20 0 -44 -3.5t-67.5 -14.5t-89 -41.5t-80.5 -75.5l-118 111q5 7 14.5 18.5t45 41t77 52.5t110.5 41.5t146 18.5q204 0 301.5 -105.5t97.5 -291.5 v-627q0 -20 8.5 -34.5t22.5 -14.5v-29h-123q-30 0 -49 24t-19 70v23q-130 -135 -319 -135q-181 0 -280 93.5t-99 250.5zM272 309q0 -81 55 -133.5t144 -52.5q63 0 112.5 13.5t82.5 33.5t56 53t35.5 63t19 73.5t8 74t1.5 74.5v86q-29 -48 -101 -68t-148 -20q-54 0 -96.5 -7.5 t-70 -18t-47 -28.5t-29 -33t-15 -38t-6.5 -37t-1 -35zM481 1247l166 305h189l-213 -305h-142z" />
<glyph unicode="&#xe2;" horiz-adv-x="1056" d="M86 326q0 48 13 91.5t45 85.5t79.5 72.5t123 49t169.5 18.5q41 0 80 4.5t86 17t75.5 42t28.5 71.5q0 86 -67 131t-168 45q-20 0 -44 -3.5t-67.5 -14.5t-89 -41.5t-80.5 -75.5l-118 111q5 7 14.5 18.5t45 41t77 52.5t110.5 41.5t146 18.5q204 0 301.5 -105.5t97.5 -291.5 v-627q0 -20 8.5 -34.5t22.5 -14.5v-29h-123q-30 0 -49 24t-19 70v23q-130 -135 -319 -135q-181 0 -280 93.5t-99 250.5zM272 309q0 -81 55 -133.5t144 -52.5q63 0 112.5 13.5t82.5 33.5t56 53t35.5 63t19 73.5t8 74t1.5 74.5v86q-29 -48 -101 -68t-148 -20q-54 0 -96.5 -7.5 t-70 -18t-47 -28.5t-29 -33t-15 -38t-6.5 -37t-1 -35zM287 1247l190 305h135l193 -305h-137l-123 172l-121 -172h-137z" />
<glyph unicode="&#xe3;" horiz-adv-x="1056" d="M86 326q0 48 13 91.5t45 85.5t79.5 72.5t123 49t169.5 18.5q41 0 80 4.5t86 17t75.5 42t28.5 71.5q0 86 -67 131t-168 45q-20 0 -44 -3.5t-67.5 -14.5t-89 -41.5t-80.5 -75.5l-118 111q5 7 14.5 18.5t45 41t77 52.5t110.5 41.5t146 18.5q204 0 301.5 -105.5t97.5 -291.5 v-627q0 -20 8.5 -34.5t22.5 -14.5v-29h-123q-30 0 -49 24t-19 70v23q-130 -135 -319 -135q-181 0 -280 93.5t-99 250.5zM207 1341q4 6 10.5 16t27.5 35t44 44t57 35t68 16q40 0 79.5 -18.5t65.5 -40t59 -40t62 -18.5q25 0 54 20.5t45 41.5l16 20l96 -70q-4 -6 -10.5 -15 t-27.5 -33t-43.5 -42.5t-56.5 -33.5t-67 -15q-41 0 -82 18.5t-67.5 40t-58.5 40t-58 18.5q-25 0 -54 -22.5t-45 -45.5l-16 -22zM272 309q0 -81 55 -133.5t144 -52.5q63 0 112.5 13.5t82.5 33.5t56 53t35.5 63t19 73.5t8 74t1.5 74.5v86q-29 -48 -101 -68t-148 -20 q-54 0 -96.5 -7.5t-70 -18t-47 -28.5t-29 -33t-15 -38t-6.5 -37t-1 -35z" />
<glyph unicode="&#xe4;" horiz-adv-x="1056" d="M86 326q0 48 13 91.5t45 85.5t79.5 72.5t123 49t169.5 18.5q41 0 80 4.5t86 17t75.5 42t28.5 71.5q0 86 -67 131t-168 45q-20 0 -44 -3.5t-67.5 -14.5t-89 -41.5t-80.5 -75.5l-118 111q5 7 14.5 18.5t45 41t77 52.5t110.5 41.5t146 18.5q204 0 301.5 -105.5t97.5 -291.5 v-627q0 -20 8.5 -34.5t22.5 -14.5v-29h-123q-30 0 -49 24t-19 70v23q-130 -135 -319 -135q-181 0 -280 93.5t-99 250.5zM272 309q0 -81 55 -133.5t144 -52.5q63 0 112.5 13.5t82.5 33.5t56 53t35.5 63t19 73.5t8 74t1.5 74.5v86q-29 -48 -101 -68t-148 -20q-54 0 -96.5 -7.5 t-70 -18t-47 -28.5t-29 -33t-15 -38t-6.5 -37t-1 -35zM272 1247v211h191v-211h-191zM631 1247v211h190v-211h-190z" />
<glyph unicode="&#xe5;" horiz-adv-x="1056" d="M86 326q0 48 13 91.5t45 85.5t79.5 72.5t123 49t169.5 18.5q41 0 80 4.5t86 17t75.5 42t28.5 71.5q0 86 -67 131t-168 45q-20 0 -44 -3.5t-67.5 -14.5t-89 -41.5t-80.5 -75.5l-118 111q5 7 14.5 18.5t45 41t77 52.5t110.5 41.5t146 18.5q204 0 301.5 -105.5t97.5 -291.5 v-627q0 -20 8.5 -34.5t22.5 -14.5v-29h-123q-30 0 -49 24t-19 70v23q-130 -135 -319 -135q-181 0 -280 93.5t-99 250.5zM272 309q0 -81 55 -133.5t144 -52.5q63 0 112.5 13.5t82.5 33.5t56 53t35.5 63t19 73.5t8 74t1.5 74.5v86q-29 -48 -101 -68t-148 -20q-54 0 -96.5 -7.5 t-70 -18t-47 -28.5t-29 -33t-15 -38t-6.5 -37t-1 -35zM340 1460q0 84 60.5 144.5t144.5 60.5q85 0 146 -61t61 -144q0 -85 -61 -145t-146 -60t-145 60t-60 145zM465 1460q0 -34 23 -57t57 -23t58 23t24 57q0 32 -24 56t-58 24q-33 0 -56.5 -23.5t-23.5 -56.5z" />
<glyph unicode="&#xe6;" horiz-adv-x="1898" d="M86 326q0 48 13 91.5t45 85.5t79.5 72.5t123 49t169.5 18.5q41 0 80 4.5t86 17t75.5 42t28.5 71.5q0 86 -67 131t-168 45q-20 0 -44 -3.5t-67.5 -14.5t-89 -41.5t-80.5 -75.5l-118 111q5 7 14.5 18.5t45 41t77 52.5t110.5 41.5t146 18.5q263 0 356 -187q139 187 397 187 q104 0 190.5 -31t145.5 -84t100 -123t59.5 -147t18.5 -158v-61h-864q8 -164 105.5 -266.5t257.5 -102.5q191 0 317 156l127 -74q-70 -102 -182.5 -165.5t-261.5 -63.5q-51 0 -106 10.5t-116.5 34.5t-119.5 70.5t-99 109.5q-30 -60 -75.5 -104.5t-99.5 -70.5t-111 -38 t-119 -12q-181 0 -280 93.5t-99 250.5zM272 309q0 -81 55 -133.5t144 -52.5q63 0 112.5 13.5t82.5 33.5t56 53t35.5 63t19 73.5t8 74t1.5 74.5v86q-29 -48 -101 -68t-148 -20q-54 0 -96.5 -7.5t-70 -18t-47 -28.5t-29 -33t-15 -38t-6.5 -37t-1 -35zM956 645h695 q-4 35 -14 70t-35.5 80.5t-62 78.5t-99.5 56.5t-142 23.5q-133 0 -225 -77t-117 -232z" />
<glyph unicode="&#xe7;" horiz-adv-x="1089" d="M82 522q0 171 60.5 301t181 204.5t286.5 74.5q65 0 124.5 -16.5t104 -42.5t81.5 -60.5t60.5 -69t39.5 -69.5l-129 -74q-105 184 -281 184q-76 0 -139 -22.5t-115.5 -71t-82 -135t-29.5 -203.5q0 -101 32.5 -179.5t85.5 -123.5t113.5 -67.5t124.5 -22.5q65 0 119 15.5 t90 42.5t59.5 54.5t38.5 59.5l131 -68q-21 -48 -55 -89.5t-85.5 -79.5t-128.5 -60t-169 -22q-24 0 -70 4l-26 -99q39 39 88 39q82 0 124 -44.5t42 -121.5q0 -72 -52.5 -126.5t-144.5 -63.5v119q82 16 82 75q0 28 -14.5 41t-50.5 13q-44 0 -82.5 -28t-55.5 -56l-16 -27 l-94 51l73 260q-145 58 -233 188.5t-88 315.5z" />
<glyph unicode="&#xe8;" horiz-adv-x="1193" d="M82 535q0 113 31.5 213t92.5 180t161 127t227 47q104 0 190.5 -31t145.5 -84t100 -123t59.5 -147t18.5 -158v-61h-864q8 -164 105 -266.5t257 -102.5q192 0 318 156l127 -74q-70 -102 -183 -165.5t-262 -63.5q-60 0 -123.5 13.5t-137.5 51.5t-130.5 97t-94.5 160.5 t-38 230.5zM252 645h694q-4 36 -14 70.5t-35 80t-61.5 78.5t-99.5 56.5t-142 23.5q-133 0 -225 -77t-117 -232zM309 1552h189l166 -305h-142z" />
<glyph unicode="&#xe9;" horiz-adv-x="1193" d="M82 535q0 113 31.5 213t92.5 180t161 127t227 47q104 0 190.5 -31t145.5 -84t100 -123t59.5 -147t18.5 -158v-61h-864q8 -164 105 -266.5t257 -102.5q192 0 318 156l127 -74q-70 -102 -183 -165.5t-262 -63.5q-60 0 -123.5 13.5t-137.5 51.5t-130.5 97t-94.5 160.5 t-38 230.5zM252 645h694q-4 36 -14 70.5t-35 80t-61.5 78.5t-99.5 56.5t-142 23.5q-133 0 -225 -77t-117 -232zM524 1247l166 305h189l-213 -305h-142z" />
<glyph unicode="&#xea;" horiz-adv-x="1193" d="M82 535q0 113 31.5 213t92.5 180t161 127t227 47q104 0 190.5 -31t145.5 -84t100 -123t59.5 -147t18.5 -158v-61h-864q8 -164 105 -266.5t257 -102.5q192 0 318 156l127 -74q-70 -102 -183 -165.5t-262 -63.5q-60 0 -123.5 13.5t-137.5 51.5t-130.5 97t-94.5 160.5 t-38 230.5zM252 645h694q-4 36 -14 70.5t-35 80t-61.5 78.5t-99.5 56.5t-142 23.5q-133 0 -225 -77t-117 -232zM336 1247l190 305h136l192 -305h-137l-123 172l-121 -172h-137z" />
<glyph unicode="&#xeb;" horiz-adv-x="1193" d="M82 535q0 113 31.5 213t92.5 180t161 127t227 47q104 0 190.5 -31t145.5 -84t100 -123t59.5 -147t18.5 -158v-61h-864q8 -164 105 -266.5t257 -102.5q192 0 318 156l127 -74q-70 -102 -183 -165.5t-262 -63.5q-60 0 -123.5 13.5t-137.5 51.5t-130.5 97t-94.5 160.5 t-38 230.5zM252 645h694q-4 36 -14 70.5t-35 80t-61.5 78.5t-99.5 56.5t-142 23.5q-133 0 -225 -77t-117 -232zM322 1247v211h190v-211h-190zM680 1247v211h190v-211h-190z" />
<glyph unicode="&#xec;" horiz-adv-x="456" d="M51 1552h189l166 -305h-142zM147 0v1083h162v-1083h-162z" />
<glyph unicode="&#xed;" horiz-adv-x="456" d="M51 1247l166 305h189l-213 -305h-142zM147 0v1083h162v-1083h-162z" />
<glyph unicode="&#xee;" horiz-adv-x="456" d="M-31 1247l191 305h135l192 -305h-137l-123 172l-121 -172h-137zM147 0v1083h162v-1083h-162z" />
<glyph unicode="&#xef;" horiz-adv-x="458" d="M-45 1247v211h190v-211h-190zM147 0v1083h162v-1083h-162zM313 1247v211h191v-211h-191z" />
<glyph unicode="&#xf0;" horiz-adv-x="1136" d="M82 522q0 162 54 287t165 199.5t264 74.5q124 0 213 -69q-35 94 -94 198h-389v168h283q-26 33 -41 56l147 114q65 -71 131 -170h152v-168h-58q146 -311 146 -698q0 -151 -58 -271t-169 -190.5t-257 -70.5q-121 0 -214.5 40.5t-152 114t-89.5 170.5t-33 215zM270 522 q0 -85 14.5 -149.5t48 -116.5t93.5 -79t145 -27q81 0 141 30t93.5 83t49 117t15.5 142q-2 185 -75.5 290.5t-229.5 105.5q-295 0 -295 -396z" />
<glyph unicode="&#xf1;" horiz-adv-x="1200" d="M143 0v1083h162l41 -133q130 152 330 152q88 0 157 -22.5t112.5 -60t72 -89t40 -105t11.5 -112.5v-713h-162v709q0 37 -4 66.5t-18 64.5t-38.5 58.5t-68.5 39.5t-104 16q-175 0 -272 -105t-97 -294v-555h-162zM258 1341q4 6 10.5 16t27.5 35t44 44t57 35t68 16 q40 0 79.5 -18.5t65.5 -40t59 -40t62 -18.5q25 0 54 20.5t45 41.5l16 20l96 -70q-4 -6 -10.5 -15t-27.5 -33t-43.5 -42.5t-56.5 -33.5t-67 -15q-41 0 -82 18.5t-67.5 40t-58.5 40t-58 18.5q-25 0 -54 -22.5t-45 -45.5l-16 -22z" />
<glyph unicode="&#xf2;" horiz-adv-x="1216" d="M82 541q0 117 40 220.5t109 178.5t167 118.5t210 43.5q149 0 270 -74t189 -202.5t68 -284.5q0 -155 -68 -283t-189 -202t-270 -74q-112 0 -210 43.5t-167 118.5t-109 178t-40 219zM244 541q0 -107 45 -200.5t129.5 -152.5t189.5 -59q79 0 148 34.5t116 91.5t74 131.5 t27 154.5q0 107 -45 201t-130 153t-190 59t-189.5 -59t-129.5 -153t-45 -201zM324 1552h188l166 -305h-141z" />
<glyph unicode="&#xf3;" horiz-adv-x="1216" d="M82 541q0 117 40 220.5t109 178.5t167 118.5t210 43.5q149 0 270 -74t189 -202.5t68 -284.5q0 -155 -68 -283t-189 -202t-270 -74q-112 0 -210 43.5t-167 118.5t-109 178t-40 219zM244 541q0 -107 45 -200.5t129.5 -152.5t189.5 -59q79 0 148 34.5t116 91.5t74 131.5 t27 154.5q0 107 -45 201t-130 153t-190 59t-189.5 -59t-129.5 -153t-45 -201zM539 1247l166 305h188l-213 -305h-141z" />
<glyph unicode="&#xf4;" horiz-adv-x="1216" d="M82 541q0 117 40 220.5t109 178.5t167 118.5t210 43.5q149 0 270 -74t189 -202.5t68 -284.5q0 -155 -68 -283t-189 -202t-270 -74q-112 0 -210 43.5t-167 118.5t-109 178t-40 219zM244 541q0 -107 45 -200.5t129.5 -152.5t189.5 -59q79 0 148 34.5t116 91.5t74 131.5 t27 154.5q0 107 -45 201t-130 153t-190 59t-189.5 -59t-129.5 -153t-45 -201zM350 1247l191 305h135l192 -305h-137l-123 172l-121 -172h-137z" />
<glyph unicode="&#xf5;" horiz-adv-x="1216" d="M82 541q0 117 40 220.5t109 178.5t167 118.5t210 43.5q149 0 270 -74t189 -202.5t68 -284.5q0 -155 -68 -283t-189 -202t-270 -74q-112 0 -210 43.5t-167 118.5t-109 178t-40 219zM244 541q0 -107 45 -200.5t129.5 -152.5t189.5 -59q79 0 148 34.5t116 91.5t74 131.5 t27 154.5q0 107 -45 201t-130 153t-190 59t-189.5 -59t-129.5 -153t-45 -201zM266 1341q4 6 10.5 16t27.5 35t44 44t57 35t68 16q40 0 79.5 -18.5t65.5 -40t59 -40t62 -18.5q25 0 54 20.5t45 41.5l16 20l96 -70q-4 -6 -10.5 -15t-27.5 -33t-43.5 -42.5t-56.5 -33.5t-67 -15 q-41 0 -82 18.5t-67.5 40t-58.5 40t-58 18.5q-25 0 -53.5 -22.5t-44.5 -45.5l-16 -22z" />
<glyph unicode="&#xf6;" horiz-adv-x="1216" d="M82 541q0 117 40 220.5t109 178.5t167 118.5t210 43.5q149 0 270 -74t189 -202.5t68 -284.5q0 -155 -68 -283t-189 -202t-270 -74q-112 0 -210 43.5t-167 118.5t-109 178t-40 219zM244 541q0 -107 45 -200.5t129.5 -152.5t189.5 -59q79 0 148 34.5t116 91.5t74 131.5 t27 154.5q0 107 -45 201t-130 153t-190 59t-189.5 -59t-129.5 -153t-45 -201zM334 1247v211h190v-211h-190zM692 1247v211h191v-211h-191z" />
<glyph unicode="&#xf7;" horiz-adv-x="1228" d="M154 449v200h923v-200h-923zM518 0v231h195v-231h-195zM518 864v232h195v-232h-195z" />
<glyph unicode="&#xf8;" horiz-adv-x="1216" d="M82 541q0 117 40 220.5t109 178.5t167 118.5t210 43.5q95 0 180 -31l82 152l168 -88l-88 -162q87 -78 136 -190t49 -242q0 -155 -68 -283t-189 -202t-270 -74q-92 0 -178 28l-86 -160l-164 89l90 167q-89 76 -138.5 189.5t-49.5 245.5zM244 541q0 -172 104 -291l369 686 q-53 18 -109 18q-105 0 -189.5 -59t-129.5 -153t-45 -201zM504 145q53 -16 104 -16q79 0 148 34.5t116 91.5t74 131.5t27 154.5q0 161 -101 286z" />
<glyph unicode="&#xf9;" horiz-adv-x="1216" d="M143 371v712h162v-708q0 -37 4 -67t18.5 -65t38.5 -58.5t68.5 -39.5t104.5 -16q175 0 271.5 105t96.5 294v555h162v-1083h-162l-41 133q-129 -151 -329 -151q-88 0 -157 22.5t-113 60t-72.5 89t-40 105t-11.5 112.5zM430 1552h188l166 -305h-141z" />
<glyph unicode="&#xfa;" horiz-adv-x="1216" d="M143 371v712h162v-708q0 -37 4 -67t18.5 -65t38.5 -58.5t68.5 -39.5t104.5 -16q175 0 271.5 105t96.5 294v555h162v-1083h-162l-41 133q-129 -151 -329 -151q-88 0 -157 22.5t-113 60t-72.5 89t-40 105t-11.5 112.5zM430 1247l166 305h188l-213 -305h-141z" />
<glyph unicode="&#xfb;" horiz-adv-x="1216" d="M143 371v712h162v-708q0 -37 4 -67t18.5 -65t38.5 -58.5t68.5 -39.5t104.5 -16q175 0 271.5 105t96.5 294v555h162v-1083h-162l-41 133q-129 -151 -329 -151q-88 0 -157 22.5t-113 60t-72.5 89t-40 105t-11.5 112.5zM348 1247l191 305h135l192 -305h-137l-123 172 l-121 -172h-137z" />
<glyph unicode="&#xfc;" horiz-adv-x="1216" d="M143 371v712h162v-708q0 -37 4 -67t18.5 -65t38.5 -58.5t68.5 -39.5t104.5 -16q175 0 271.5 105t96.5 294v555h162v-1083h-162l-41 133q-129 -151 -329 -151q-88 0 -157 22.5t-113 60t-72.5 89t-40 105t-11.5 112.5zM332 1247v211h190v-211h-190zM690 1247v211h191v-211 h-191z" />
<glyph unicode="&#xfd;" horiz-adv-x="1075" d="M12 1083h178l345 -872l356 872h176l-457 -1083q-29 -70 -56 -124t-55 -94t-52 -68.5t-54.5 -47t-55 -29.5t-61.5 -16t-65.5 -6.5t-75.5 -1.5v147q78 0 126 10t84.5 42t59 74t52.5 122zM360 1167l166 306h189l-213 -306h-142z" />
<glyph unicode="&#xfe;" horiz-adv-x="1224" d="M147 -369v1823h162v-520q54 73 152.5 120.5t195.5 47.5q150 0 271.5 -78t188.5 -206.5t67 -278.5q0 -240 -149 -398.5t-378 -158.5q-223 0 -348 170v-521h-162zM299 539q0 -102 45 -195.5t130 -154t188 -60.5q104 0 187.5 59t128 152.5t44.5 198.5q0 106 -44.5 200.5 t-128 154.5t-187.5 60q-162 0 -262.5 -115t-100.5 -300z" />
<glyph unicode="&#xff;" horiz-adv-x="1075" d="M12 1083h178l345 -872l356 872h176l-457 -1083q-29 -70 -56 -124t-55 -94t-52 -68.5t-54.5 -47t-55 -29.5t-61.5 -16t-65.5 -6.5t-75.5 -1.5v147q78 0 126 10t84.5 42t59 74t52.5 122zM262 1247v211h191v-211h-191zM621 1247v211h190v-211h-190z" />
<glyph unicode="&#x152;" horiz-adv-x="2357" d="M92 727q0 147 53.5 283t145.5 238t223.5 163.5t278.5 61.5q166 0 304 -72t234 -197v250h940v-154h-768v-469h645v-153h-645v-524h789v-154h-961v250q-96 -125 -234 -196.5t-304 -71.5q-147 0 -278.5 61t-223.5 163t-145.5 238t-53.5 283zM264 727q0 -153 67 -284 t189.5 -210t272.5 -79q113 0 212.5 46.5t168 124.5t108 183t39.5 219t-39.5 219t-108 183t-168 124.5t-212.5 46.5q-150 0 -272.5 -79t-189.5 -210t-67 -284z" />
<glyph unicode="&#x153;" horiz-adv-x="2086" d="M82 541q0 117 40 220.5t109 178.5t167 118.5t210 43.5q140 0 256.5 -67t186.5 -183q63 117 172.5 183.5t263.5 66.5q104 0 190.5 -31t145.5 -84t100 -123t59.5 -147t18.5 -158v-61h-864q8 -164 105 -266.5t257 -102.5q192 0 318 156l127 -74q-70 -102 -183 -165.5 t-262 -63.5q-53 0 -109.5 11.5t-120.5 37t-123 75.5t-99 119q-70 -113 -185.5 -178t-253.5 -65q-112 0 -210 43.5t-167 118.5t-109 178t-40 219zM244 541q0 -107 45 -200.5t129.5 -152.5t189.5 -59q79 0 148 34.5t116 91.5t74 131.5t27 154.5q0 107 -45 201t-130 153 t-190 59t-189.5 -59t-129.5 -153t-45 -201zM1145 645h694q-4 36 -14 70.5t-35 80t-61.5 78.5t-99.5 56.5t-142 23.5q-133 0 -225 -77t-117 -232z" />
<glyph unicode="&#x178;" horiz-adv-x="1179" d="M2 1454h197l393 -713l391 713h195l-502 -907v-547h-172v549zM315 1618v211h191v-211h-191zM674 1618v211h190v-211h-190z" />
<glyph unicode="&#x2c6;" horiz-adv-x="927" d="M205 1167l190 306h135l193 -306h-137l-123 172l-121 -172h-137z" />
<glyph unicode="&#x2dc;" horiz-adv-x="1093" d="M205 1264q4 6 10.5 15.5t27.5 34.5t44 44.5t57 35t68 15.5q40 0 79.5 -18.5t65.5 -40t59 -40t62 -18.5q25 0 54 20.5t45 41.5l16 20l96 -69q-4 -6 -10.5 -15.5t-27.5 -33.5t-43.5 -42.5t-56.5 -33.5t-67 -15q-41 0 -82 18.5t-67.5 40t-58.5 40t-58 18.5q-25 0 -54 -22.5 t-45 -45.5l-16 -22z" />
<glyph unicode="&#x2000;" horiz-adv-x="972" />
<glyph unicode="&#x2001;" horiz-adv-x="1944" />
<glyph unicode="&#x2002;" horiz-adv-x="972" />
<glyph unicode="&#x2003;" horiz-adv-x="1944" />
<glyph unicode="&#x2004;" horiz-adv-x="648" />
<glyph unicode="&#x2005;" horiz-adv-x="486" />
<glyph unicode="&#x2006;" horiz-adv-x="324" />
<glyph unicode="&#x2007;" horiz-adv-x="324" />
<glyph unicode="&#x2008;" horiz-adv-x="243" />
<glyph unicode="&#x2009;" horiz-adv-x="388" />
<glyph unicode="&#x200a;" horiz-adv-x="108" />
<glyph unicode="&#x2010;" horiz-adv-x="946" d="M123 514v174h700v-174h-700z" />
<glyph unicode="&#x2011;" horiz-adv-x="946" d="M123 514v174h700v-174h-700z" />
<glyph unicode="&#x2012;" horiz-adv-x="946" d="M123 514v174h700v-174h-700z" />
<glyph unicode="&#x2013;" horiz-adv-x="1169" d="M123 483v201h924v-201h-924z" />
<glyph unicode="&#x2014;" horiz-adv-x="1769" d="M123 483v201h1524v-201h-1524z" />
<glyph unicode="&#x2018;" horiz-adv-x="354" d="M82 975v217q0 111 23.5 163.5t111.5 98.5l41 -82q-52 -35 -66 -67t-14 -86v-13h98v-231h-194z" />
<glyph unicode="&#x2019;" horiz-adv-x="354" d="M82 1223v231h194v-217q0 -111 -23.5 -163.5t-111.5 -98.5l-41 82q52 35 66 67t14 86v13h-98z" />
<glyph unicode="&#x201a;" horiz-adv-x="348" d="M82 0v231h194v-217q0 -111 -23.5 -163.5t-111.5 -98.5l-41 82q52 35 66 67.5t14 86.5v12h-98z" />
<glyph unicode="&#x201c;" horiz-adv-x="661" d="M82 975v217q0 111 23.5 163.5t111.5 98.5l41 -82q-52 -35 -66 -67t-14 -86v-13h98v-231h-194zM389 975v217q0 111 23.5 163.5t111.5 98.5l41 -82q-52 -35 -66 -67t-14 -86v-13h99v-231h-195z" />
<glyph unicode="&#x201d;" horiz-adv-x="661" d="M82 1223v231h194v-217q0 -111 -23.5 -163.5t-111.5 -98.5l-41 82q52 35 66 67t14 86v13h-98zM389 1223v231h195v-217q0 -111 -23.5 -163.5t-111.5 -98.5l-41 82q52 35 65.5 67t13.5 86v13h-98z" />
<glyph unicode="&#x201e;" horiz-adv-x="655" d="M82 0v231h194v-217q0 -111 -23.5 -163.5t-111.5 -98.5l-41 82q52 35 66 67.5t14 86.5v12h-98zM389 0v231h195v-217q0 -111 -23.5 -163.5t-111.5 -98.5l-41 82q52 35 65.5 67.5t13.5 86.5v12h-98z" />
<glyph unicode="&#x2022;" horiz-adv-x="614" d="M102 590q0 84 59.5 144.5t145.5 60.5q84 0 144.5 -60.5t60.5 -144.5q0 -85 -60 -145t-145 -60q-86 0 -145.5 60t-59.5 145z" />
<glyph unicode="&#x2026;" horiz-adv-x="1402" d="M123 0v231h194v-231h-194zM604 0v231h195v-231h-195zM1085 0v231h195v-231h-195z" />
<glyph unicode="&#x202f;" horiz-adv-x="388" />
<glyph unicode="&#x2039;" horiz-adv-x="679" d="M82 559v66l383 458l135 -112l-317 -379l319 -381l-135 -113z" />
<glyph unicode="&#x203a;" horiz-adv-x="679" d="M82 211l319 381l-317 379l135 112l383 -458v-66l-385 -461z" />
<glyph unicode="&#x205f;" horiz-adv-x="486" />
<glyph unicode="&#x20ac;" d="M82 522v123h113v164h-113v123h121q15 155 75.5 275t171 193t255.5 73q117 0 202.5 -30t142 -80t113.5 -134l-145 -94q-99 176 -313 176q-72 0 -130 -29.5t-96 -82.5t-61 -120t-33 -147h483l-28 -123h-465v-164h426l-27 -123h-391q8 -66 22 -120.5t39.5 -103.5t60.5 -82.5 t86 -53t114 -19.5q85 0 143 19t94.5 52.5t75.5 94.5l145 -86q-76 -123 -186.5 -182t-271.5 -59q-450 0 -502 540h-121z" />
<glyph unicode="&#x2122;" horiz-adv-x="1421" d="M4 1350v104h590v-104h-236v-633h-118v633h-236zM653 717v737h189l196 -569l195 569h188v-737h-118v586l-218 -586h-96l-217 586v-586h-119z" />
<glyph unicode="&#x25fc;" horiz-adv-x="1085" d="M0 0v1085h1085v-1085h-1085z" />
<glyph unicode="&#xfb01;" horiz-adv-x="1009" d="M10 936v147h207v78q0 312 217 312q44 0 78 -4.5t46 -9.5l11 -5v-147q-26 18 -77 18q-37 0 -61 -19t-34.5 -57t-14 -74.5t-3.5 -91.5h190v-147h-190v-936h-162v936h-207zM696 1231v223h170v-223h-170zM700 0v1083h162v-1083h-162z" />
<glyph unicode="&#xfb02;" horiz-adv-x="1005" d="M10 936v147h207v78q0 312 217 312q44 0 78 -4.5t46 -9.5l11 -5v-147q-26 18 -77 18q-37 0 -61 -19t-34.5 -57t-14 -74.5t-3.5 -91.5h190v-147h-190v-936h-162v936h-207zM700 0v1454h162v-1454h-162z" />
</font>
</defs>
</svg>
